<svg xmlns="http://www.w3.org/2000/svg" viewBox="0 0 64 64">
<rect width="64" height="64" rx="14" fill="#12141b"/>
<circle cx="32" cy="32" r="19" fill="#1b1b1b" stroke="#0a0a0a" stroke-width="3.2"/>
<path d="M32 13a19 19 0 0 1 0 38a13 13 0 0 0 -4 -38z" fill="#8a7444"/>
<path d="M32 13a19 19 0 0 0 -4 38a13 13 0 0 1 4 -38z" fill="#d4b06a"/>
<path d="M32 13a19 19 0 0 0 -16.5 9.5a11 11 0 0 1 12.5 -6.5z" fill="#f2e3c4"/>
<ellipse cx="22.5" cy="21" rx="3.4" ry="2.2" fill="#ffffff" transform="rotate(-35 22.5 21)"/>
</svg>
