<svg xmlns="http://www.w3.org/2000/svg" viewBox="0 0 64 64">
<defs>
<radialGradient id="glow" cx="50%" cy="42%" r="60%">
<stop offset="0" stop-color="#3a2f1e"/>
<stop offset="1" stop-color="#12141b"/>
</radialGradient>
<clipPath id="ball"><circle cx="32.0" cy="29.0" r="17.0"/></clipPath>
</defs>
<rect width="64" height="64" rx="14" fill="url(#glow)"/>
<ellipse cx="32" cy="52.5" rx="21" ry="4.6" fill="#d4b06a" opacity="0.12"/>
<ellipse cx="32" cy="52.5" rx="21" ry="4.6" fill="none" stroke="#d4b06a" stroke-width="1.1" opacity="0.75"/>
<g clip-path="url(#ball)">
<circle cx="32.0" cy="29.0" r="17.0" fill="#4e3820"/>
<path d="M 48.28 24.33 A 17.0 17.0 0 1 0 23.78 43.81 Z" fill="#9a7442"/>
<path d="M 43.93 16.97 A 17.0 17.0 0 0 0 17.59 37.91 Z" fill="#d9b775"/>
<path d="M 41.5 14.5 A 17 17 0 0 1 48.6 24.5" fill="none" stroke="#f6e9cb" stroke-width="1.6" stroke-linecap="round" opacity="0.85"/>
<path d="M 20.5 20.2 C 24.5 15.4 31.5 13.6 37.5 15.6" fill="none" stroke="#fff6e2" stroke-width="2.4" stroke-linecap="round"/>
<ellipse cx="24.5" cy="23.5" rx="2.2" ry="1.4" fill="#fff9ee" transform="rotate(-35 24.5 23.5)"/>
</g>
<circle cx="32.0" cy="29.0" r="17.0" fill="none" stroke="#0a0a0c" stroke-width="2.2"/>
</svg>
